<?xml version="1.0" encoding="UTF-8"?>
<svg width="18px" height="15px" viewBox="0 0 18 15" version="1.1" xmlns="http://www.w3.org/2000/svg" xmlns:xlink="http://www.w3.org/1999/xlink">
    <!-- Generator: Sketch 47 (45396) - http://www.bohemiancoding.com/sketch -->
    <title>导出</title>
    <desc>Created with Sketch.</desc>
    <defs></defs>
    <g id="规范" stroke="none" stroke-width="1" fill="none" fill-rule="evenodd">
        <g id="按钮-图标" transform="translate(-142.000000, -418.000000)" fill="#0F7FDC">
            <g id="导出" transform="translate(142.000000, 418.000000)">
                <g>
                    <path d="M17.0652733,6.77291047 C16.6686028,6.77291047 16.3466674,7.08866336 16.3466674,7.47771603 L16.3466674,13.2380918 L1.47224294,13.2380918 L1.47224294,7.47771603 C1.47224294,7.08866336 1.15030748,6.77291047 0.753636994,6.77291047 C0.35660721,6.77291047 0.0350310501,7.08866336 0.0350310501,7.47771603 L0.0350310501,13.3170301 C0.0350310501,14.0507326 0.643330982,14.6477029 1.39139977,14.6477029 L16.4275105,14.6477029 C17.17522,14.6477029 17.7838793,14.0507326 17.7838793,13.3170301 L17.7838793,7.47771603 C17.7838793,7.08866336 17.4623031,6.77291047 17.0652733,6.77291047" id="Fill-1"></path>
                    <path d="M7.0473549,9.38065441 C7.0473549,9.63529053 7.25773825,9.84132 7.51672078,9.84132 L9.98057194,9.84132 C10.2398742,9.84132 10.4502576,9.63529053 10.4502576,9.38065441 L10.4502576,4.51179361 L12.2727273,4.51179361 C12.2727273,4.44248993 12.251625,4.37287267 12.2094204,4.31956215 L8.90243723,0.181098033 C8.81770837,0.0744769979 8.67990408,0.0744769979 8.5948555,0.181098033 L5.28819203,4.31956215 C5.24566774,4.37287267 5.22456545,4.44248993 5.22456545,4.51179361 L7.0473549,4.51179361 L7.0473549,9.38065441 Z" id="Fill-4"></path>
                </g>
            </g>
        </g>
    </g>
</svg>